# xmcd
#
# Track frame offsets:
#	150
#	17947
#	35570
#	50842
#	69167
#	89080
#	111577
#	129010
#	144430
#	163490
#	184242
#	200885
#	217405
#
# Disc length: 3240 seconds
#
# Revision: 1
# Processed by: cddbd v1.5.1PL0 Copyright (c) Steve Scherf et al.
# Submitted via: CDex 1.50Beta5
#
DISCID=d60ca60d
DTITLE=MR.BIG - HITS HARD ROCK 2
DYEAR=1996
DGENRE=Rock
TTITLE0=MR.BIG/ダディ,ブラザー,ラバー,リトル・ボーイ
TTITLE1=フェア・ウォーニング/バーニング・ハート
TTITLE2=デビッド・リー・ロス/シャイボーイ
TTITLE3=アンスラックス/フュエルド
TTITLE4=パンテラ/アイム・ブロークン
TTITLE5=ハーレム・スキャーレム/チェンジ・カムズ・アラウンド
TTITLE6=スキッド・ロウ/エイティーン・アンド・ライフ
TTITLE7=ラット/レイ・イット・ダウン
TTITLE8=バンデンバーグ/トゥー・レイト
TTITLE9=ヴィンス・ニール/長い夜
TTITLE10=ドッケン/トゥース・アンド・ネイル
TTITLE11=ツイステッド・シスター/ウイアー・ノット・ゴナ・テイク・イット
TTITLE12=ディープ・パープル/スモーク・オン・ザ・ウォーター
EXTD=
EXTT0=
EXTT1=
EXTT2=
EXTT3=
EXTT4=
EXTT5=
EXTT6=
EXTT7=
EXTT8=
EXTT9=
EXTT10=
EXTT11=
EXTT12=
PLAYORDER=
